<svg width="38" height="38" viewBox="0 0 38 38" fill="none" xmlns="http://www.w3.org/2000/svg">
<path fill-rule="evenodd" clip-rule="evenodd" d="M9.0449 34.5442L9.13541 33.6142C9.30635 33.6308 9.47991 33.6393 9.65574 33.6393H10.2787V34.5738H9.65574C9.44963 34.5738 9.24587 34.5638 9.0449 34.5442ZM21.4918 34.5738V33.6393H22.1148C22.3048 33.6393 22.4936 33.6348 22.6812 33.6257L22.7263 34.559C22.5237 34.5688 22.3198 34.5738 22.1148 34.5738H21.4918ZM23.9436 34.4405L23.8076 33.516C24.1836 33.4607 24.5536 33.3872 24.9167 33.2966L25.1431 34.2032C24.7503 34.3013 24.3501 34.3807 23.9436 34.4405ZM26.3134 33.8486L25.9985 32.9688C26.355 32.8412 26.7034 32.6966 27.0428 32.5358L27.4429 33.3802C27.0759 33.5541 26.699 33.7106 26.3134 33.8486ZM28.5208 32.8029L28.0396 32.0019C28.3636 31.8073 28.6773 31.5972 28.9797 31.3726L29.5369 32.1227C29.2101 32.3654 28.8711 32.5925 28.5208 32.8029ZM30.4817 31.3464C30.7838 31.0724 31.0724 30.7838 31.3464 30.4817L30.6542 29.854C30.4007 30.1336 30.1336 30.4007 29.854 30.6542L30.4817 31.3464ZM32.1227 29.5369L31.3726 28.9797C31.5972 28.6773 31.8073 28.3636 32.0019 28.0396L32.8029 28.5208C32.5925 28.8711 32.3654 29.2101 32.1227 29.5369ZM33.3802 27.4429L32.5358 27.0428C32.6966 26.7034 32.8412 26.355 32.9688 25.9985L33.8486 26.3134C33.7106 26.699 33.5541 27.0759 33.3802 27.4429ZM34.2032 25.1431L33.2966 24.9167C33.3872 24.5536 33.4607 24.1836 33.516 23.8076L34.4405 23.9436C34.3807 24.3501 34.3012 24.7503 34.2032 25.1431ZM34.5738 10.2787H33.6393V9.65574C33.6393 9.47991 33.6308 9.30635 33.6142 9.13541L34.5442 9.0449C34.5638 9.24587 34.5738 9.44964 34.5738 9.65574V10.2787ZM34.3071 7.84679L33.4128 8.11774C33.3115 7.78337 33.1779 7.46288 33.0156 7.15984L33.8393 6.71865C34.0304 7.07535 34.1877 7.45282 34.3071 7.84679ZM33.1599 5.70372L32.4379 6.29692C32.2175 6.02869 31.9713 5.78245 31.7031 5.56207L32.2963 4.84008C32.6115 5.0991 32.9009 5.38847 33.1599 5.70372ZM31.2814 4.1607L30.8402 4.98441C30.5371 4.82209 30.2166 4.68852 29.8823 4.58722L30.1532 3.69293C30.5472 3.8123 30.9247 3.96964 31.2814 4.1607ZM16.5082 3.42623V4.36066H15.8852C15.6952 4.36066 15.5064 4.36525 15.3188 4.37431L15.2737 3.44098C15.4763 3.43118 15.6802 3.42623 15.8852 3.42623H16.5082ZM14.0564 3.5595C13.6499 3.61931 13.2497 3.69875 12.8569 3.79684L13.0833 4.70343C13.4464 4.61275 13.8164 4.53929 14.1924 4.48398L14.0564 3.5595ZM11.6866 4.15139L12.0015 5.03118C11.645 5.15876 11.2966 5.30342 10.9572 5.4642L10.5571 4.61976C10.9241 4.44588 11.301 4.2894 11.6866 4.15139ZM9.47921 5.19709C9.12895 5.40747 8.78987 5.63459 8.4631 5.87733L9.02031 6.62744C9.32267 6.40284 9.63636 6.19273 9.96035 5.99812L9.47921 5.19709ZM7.51828 6.6536C7.21617 6.92758 6.92758 7.21617 6.6536 7.51828L7.34578 8.146C7.59933 7.86642 7.86642 7.59933 8.146 7.34578L7.51828 6.6536ZM5.87733 8.4631L6.62744 9.02031C6.40284 9.32267 6.19273 9.63636 5.99812 9.96035L5.19709 9.47921C5.40747 9.12894 5.63459 8.78987 5.87733 8.4631ZM4.61977 10.5571L5.46421 10.9572C5.30342 11.2966 5.15876 11.645 5.03118 12.0015L4.15139 11.6866C4.2894 11.301 4.44588 10.9241 4.61977 10.5571ZM3.79684 12.8569L4.70343 13.0833C4.61275 13.4464 4.53929 13.8164 4.48398 14.1924L3.5595 14.0564C3.61931 13.6499 3.69875 13.2497 3.79684 12.8569ZM3.42623 27.7213H4.36066V28.3443C4.36066 28.5201 4.36919 28.6937 4.38583 28.8646L3.4558 28.9551C3.43624 28.7541 3.42623 28.5504 3.42623 28.3443V27.7213ZM3.69293 30.1532L4.58722 29.8823C4.68852 30.2166 4.82209 30.5371 4.98441 30.8402L4.16069 31.2814C3.96964 30.9247 3.8123 30.5472 3.69293 30.1532ZM4.84008 32.2963L5.56207 31.7031C5.78245 31.9713 6.02869 32.2175 6.29692 32.4379L5.70372 33.1599C5.38846 32.9009 5.0991 32.6115 4.84008 32.2963ZM7.84679 34.3071L8.11774 33.4128C7.78337 33.3115 7.46288 33.1779 7.15984 33.0156L6.71865 33.8393C7.07535 34.0304 7.45282 34.1877 7.84679 34.3071ZM3.42623 26.4754H4.36066V25.2295H3.42623V26.4754ZM3.42623 23.9836H4.36066V22.7377H3.42623V23.9836ZM3.42623 21.4918H4.36066V20.2459H3.42623V21.4918ZM3.42623 19H4.36066V17.7541H3.42623V19ZM3.42623 16.5082H4.36066V15.8852C4.36066 15.6952 4.36525 15.5064 4.37431 15.3188L3.44098 15.2737C3.43118 15.4763 3.42623 15.6802 3.42623 15.8852V16.5082ZM17.7541 3.42623V4.36066H19V3.42623H17.7541ZM20.2459 3.42623V4.36066H21.4918V3.42623H20.2459ZM22.7377 3.42623V4.36066H23.9836V3.42623H22.7377ZM25.2295 3.42623V4.36066H26.4754V3.42623H25.2295ZM27.7213 3.42623V4.36066H28.3443C28.5201 4.36066 28.6937 4.36919 28.8646 4.38583L28.9551 3.4558C28.7541 3.43624 28.5504 3.42623 28.3443 3.42623H27.7213ZM34.5738 11.5246H33.6393V12.7705H34.5738V11.5246ZM34.5738 14.0164H33.6393V15.2623H34.5738V14.0164ZM34.5738 16.5082H33.6393V17.7541H34.5738V16.5082ZM34.5738 19H33.6393V20.2459H34.5738V19ZM34.5738 21.4918H33.6393V22.1148C33.6393 22.3048 33.6348 22.4936 33.6257 22.6812L34.559 22.7263C34.5688 22.5237 34.5738 22.3198 34.5738 22.1148V21.4918ZM20.2459 34.5738V33.6393H19V34.5738H20.2459ZM17.7541 34.5738V33.6393H16.5082V34.5738H17.7541ZM15.2623 34.5738V33.6393H14.0164V34.5738H15.2623ZM12.7705 34.5738V33.6393H11.5246V34.5738H12.7705Z" fill="white"/>
<path d="M0 12.459C0 5.57809 5.57809 0 12.459 0H19V19H0V12.459Z" fill="url(#paint0_linear_1_19)"/>
<path d="M38 25.541C38 32.4219 32.4219 38 25.541 38H19V19H38V25.541Z" fill="url(#paint1_linear_1_19)"/>
<defs>
<linearGradient id="paint0_linear_1_19" x1="19" y1="0" x2="19" y2="38" gradientUnits="userSpaceOnUse">
<stop stop-color="#FF8A00"/>
<stop offset="1" stop-color="#991C00"/>
</linearGradient>
<linearGradient id="paint1_linear_1_19" x1="19" y1="0" x2="19" y2="38" gradientUnits="userSpaceOnUse">
<stop stop-color="#FF8A00"/>
<stop offset="1" stop-color="#991C00"/>
</linearGradient>
</defs>
</svg>
