<svg width="93" height="94" viewBox="0 0 93 94" fill="none" xmlns="http://www.w3.org/2000/svg">
<path fill-rule="evenodd" clip-rule="evenodd" d="M22.1362 85.0424L22.3577 82.7663C22.7761 82.807 23.2008 82.8279 23.6311 82.8279H25.1557V85.1148H23.6311C23.1267 85.1148 22.628 85.0903 22.1362 85.0424ZM52.5984 85.1148V82.8279H54.123C54.588 82.8279 55.0502 82.8166 55.5093 82.7944L55.6197 85.0787C55.1238 85.1026 54.6248 85.1148 54.123 85.1148H52.5984ZM58.5987 84.7886L58.2659 82.526C59.1862 82.3907 60.0918 82.2109 60.9804 81.989L61.5345 84.2077C60.5731 84.4478 59.5937 84.6422 58.5987 84.7886ZM64.3985 83.34L63.628 81.1868C64.5005 80.8746 65.3532 80.5206 66.1837 80.1271L67.1628 82.1937C66.2646 82.6193 65.3423 83.0023 64.3985 83.34ZM69.8009 80.7808L68.6233 78.8204C69.4163 78.3441 70.184 77.8299 70.924 77.2802L72.2877 79.116C71.4879 79.7101 70.6581 80.2659 69.8009 80.7808ZM74.6 77.2162C75.3394 76.5457 76.0457 75.8394 76.7162 75.1L75.0222 73.5637C74.4016 74.248 73.748 74.9016 73.0637 75.5222L74.6 77.2162ZM78.616 72.7877L76.7802 71.424C77.3299 70.684 77.8441 69.9163 78.3204 69.1233L80.2808 70.3009C79.7659 71.1581 79.2101 71.9879 78.616 72.7877ZM81.6937 67.6628L79.6271 66.6837C80.0206 65.8532 80.3746 65.0005 80.6868 64.128L82.84 64.8985C82.5022 65.8423 82.1193 66.7647 81.6937 67.6628ZM83.7077 62.0345L81.489 61.4804C81.7109 60.5918 81.8907 59.6862 82.026 58.7659L84.2886 59.0987C84.1422 60.0937 83.9478 61.0732 83.7077 62.0345ZM84.6148 25.6557H82.3279V24.1311C82.3279 23.7008 82.307 23.2761 82.2663 22.8577L84.5424 22.6362C84.5903 23.1281 84.6148 23.6267 84.6148 24.1311V25.6557ZM83.962 19.704L81.7734 20.3671C81.5255 19.5488 81.1986 18.7644 80.8013 18.0228L82.8172 16.943C83.2848 17.816 83.6699 18.7398 83.962 19.704ZM81.1545 14.4591L79.3876 15.9109C78.8482 15.2544 78.2456 14.6518 77.5891 14.1124L79.0409 12.3455C79.8124 12.9794 80.5206 13.6876 81.1545 14.4591ZM76.557 10.6828L75.4772 12.6987C74.7356 12.3014 73.9512 11.9745 73.1329 11.7266L73.796 9.53797C74.7602 9.8301 75.684 10.2152 76.557 10.6828ZM40.4016 8.88525V11.1721H38.877C38.412 11.1721 37.9498 11.1834 37.4907 11.2056L37.3803 8.92134C37.8762 8.89737 38.3752 8.88525 38.877 8.88525H40.4016ZM34.4013 9.21141C33.4063 9.35778 32.4268 9.55221 31.4655 9.79227L32.0196 12.011C32.9083 11.7891 33.8138 11.6093 34.7341 11.474L34.4013 9.21141ZM28.6015 10.66L29.372 12.8132C28.4995 13.1254 27.6468 13.4794 26.8163 13.8729L25.8372 11.8063C26.7354 11.3807 27.6577 10.9977 28.6015 10.66ZM23.1991 13.2192C22.3419 13.7341 21.5121 14.2899 20.7123 14.884L22.076 16.7198C22.816 16.1701 23.5837 15.6559 24.3767 15.1796L23.1991 13.2192ZM18.4 16.7838C17.6606 17.4543 16.9543 18.1606 16.2838 18.9L17.9778 20.4363C18.5984 19.752 19.252 19.0984 19.9363 18.4778L18.4 16.7838ZM14.384 21.2123L16.2198 22.576C15.6701 23.316 15.1559 24.0837 14.6796 24.8766L12.7192 23.6991C13.2341 22.8419 13.7899 22.0121 14.384 21.2123ZM11.3063 26.3372L13.3729 27.3163C12.9794 28.1468 12.6254 28.9995 12.3132 29.872L10.16 29.1015C10.4977 28.1577 10.8807 27.2354 11.3063 26.3372ZM9.29227 31.9655L11.511 32.5196C11.2891 33.4082 11.1093 34.3138 10.974 35.2341L8.71141 34.9013C8.85778 33.9062 9.05221 32.9268 9.29227 31.9655ZM8.38525 68.3443H10.6721V69.8689C10.6721 70.2992 10.693 70.7239 10.7337 71.1423L8.45761 71.3638C8.40974 70.8719 8.38525 70.3733 8.38525 69.8689V68.3443ZM9.03797 74.296L11.2266 73.6329C11.4745 74.4512 11.8014 75.2356 12.1987 75.9772L10.1828 77.057C9.71517 76.184 9.3301 75.2602 9.03797 74.296ZM11.8455 79.5409L13.6124 78.0891C14.1518 78.7456 14.7544 79.3482 15.4109 79.8876L13.9591 81.6545C13.1876 81.0206 12.4794 80.3124 11.8455 79.5409ZM19.204 84.462L19.8671 82.2734C19.0488 82.0255 18.2644 81.6986 17.5228 81.3013L16.443 83.3172C17.316 83.7848 18.2398 84.1699 19.204 84.462ZM8.38525 65.2951H10.6721V62.2459H8.38525V65.2951ZM8.38525 59.1967H10.6721V56.1475H8.38525V59.1967ZM8.38525 53.0984H10.6721V50.0492H8.38525V53.0984ZM8.38525 47H10.6721V43.9508H8.38525V47ZM8.38525 40.9016H10.6721V39.377C10.6721 38.912 10.6834 38.4498 10.7056 37.9907L8.42134 37.8803C8.39737 38.3762 8.38525 38.8752 8.38525 39.377V40.9016ZM43.4508 8.88525V11.1721H46.5V8.88525H43.4508ZM49.5492 8.88525V11.1721H52.5984V8.88525H49.5492ZM55.6475 8.88525V11.1721H58.6967V8.88525H55.6475ZM61.7459 8.88525V11.1721H64.7951V8.88525H61.7459ZM67.8443 8.88525V11.1721H69.3689C69.7992 11.1721 70.2239 11.193 70.6423 11.2337L70.8638 8.95761C70.3719 8.90974 69.8733 8.88525 69.3689 8.88525H67.8443ZM84.6148 28.7049H82.3279V31.7541H84.6148V28.7049ZM84.6148 34.8033H82.3279V37.8525H84.6148V34.8033ZM84.6148 40.9016H82.3279V43.9508H84.6148V40.9016ZM84.6148 47H82.3279V50.0492H84.6148V47ZM84.6148 53.0984H82.3279V54.623C82.3279 55.088 82.3166 55.5502 82.2944 56.0093L84.5787 56.1197C84.6026 55.6238 84.6148 55.1248 84.6148 54.623V53.0984ZM49.5492 85.1148V82.8279H46.5V85.1148H49.5492ZM43.4508 85.1148V82.8279H40.4016V85.1148H43.4508ZM37.3525 85.1148V82.8279H34.3033V85.1148H37.3525ZM31.2541 85.1148V82.8279H28.2049V85.1148H31.2541Z" fill="url(#paint0_linear_2017_1344)" fill-opacity="0.45"/>
<path d="M0 30.9918C0 14.1516 13.6516 0.5 30.4918 0.5H46.5V47H0V30.9918Z" fill="url(#paint1_linear_2017_1344)"/>
<path d="M93 63.0082C93 79.8484 79.3484 93.5 62.5082 93.5H46.5V47H93V63.0082Z" fill="url(#paint2_linear_2017_1344)"/>
<defs>
<linearGradient id="paint0_linear_2017_1344" x1="46.5" y1="0.5" x2="46.5" y2="93.5" gradientUnits="userSpaceOnUse">
<stop stop-color="white"/>
<stop offset="0.0001"/>
</linearGradient>
<linearGradient id="paint1_linear_2017_1344" x1="46.5" y1="0.5" x2="46.5" y2="93.5" gradientUnits="userSpaceOnUse">
<stop stop-color="#FF8A00"/>
<stop offset="1" stop-color="#991C00"/>
</linearGradient>
<linearGradient id="paint2_linear_2017_1344" x1="46.5" y1="0.5" x2="46.5" y2="93.5" gradientUnits="userSpaceOnUse">
<stop stop-color="#FF8A00"/>
<stop offset="1" stop-color="#991C00"/>
</linearGradient>
</defs>
</svg>
